<svg width="1600" height="1200" viewBox="0 0 1600 1200" fill="none" xmlns="http://www.w3.org/2000/svg">
  <rect width="1600" height="1200" fill="url(#bg)"/>
  <ellipse cx="1280" cy="140" rx="300" ry="180" fill="#E4C391" fill-opacity="0.18"/>
  <rect x="94" y="132" width="986" height="706" rx="42" fill="#101822"/>
  <rect x="144" y="182" width="888" height="606" rx="32" fill="#152334"/>
  <rect x="198" y="236" width="342" height="18" rx="9" fill="#F0DFCA" fill-opacity="0.88"/>
  <rect x="198" y="278" width="262" height="12" rx="6" fill="#9EB2CA" fill-opacity="0.68"/>
  <rect x="198" y="336" width="246" height="216" rx="22" fill="#20354D"/>
  <rect x="474" y="336" width="246" height="216" rx="22" fill="#E4C391" fill-opacity="0.14"/>
  <rect x="750" y="336" width="226" height="216" rx="22" fill="#20354D"/>
  <rect x="198" y="586" width="778" height="154" rx="24" fill="#1C2E44"/>
  <path d="M246 686H918" stroke="#A8BDD4" stroke-opacity="0.36" stroke-width="4" stroke-linecap="round"/>
  <circle cx="308" cy="686" r="10" fill="#E4C391"/>
  <circle cx="516" cy="686" r="10" fill="#E4C391"/>
  <circle cx="728" cy="686" r="10" fill="#E4C391"/>
  <circle cx="886" cy="686" r="10" fill="#E4C391"/>
  <rect x="1132" y="164" width="370" height="754" rx="40" fill="#FBF8F2" fill-opacity="0.92"/>
  <rect x="1182" y="220" width="280" height="18" rx="9" fill="#172335"/>
  <rect x="1182" y="260" width="206" height="12" rx="6" fill="#68788F" fill-opacity="0.68"/>
  <rect x="1182" y="294" width="238" height="12" rx="6" fill="#68788F" fill-opacity="0.42"/>
  <rect x="1182" y="366" width="270" height="126" rx="20" fill="#EEE0CC"/>
  <rect x="1182" y="516" width="270" height="126" rx="20" fill="#F5EEDF"/>
  <rect x="1182" y="666" width="270" height="186" rx="20" fill="#EEE0CC"/>
  <rect x="1216" y="400" width="204" height="12" rx="6" fill="#1C2C40" fill-opacity="0.74"/>
  <rect x="1216" y="550" width="204" height="12" rx="6" fill="#1C2C40" fill-opacity="0.74"/>
  <rect x="1216" y="702" width="204" height="12" rx="6" fill="#1C2C40" fill-opacity="0.74"/>
  <rect x="0" y="956" width="1600" height="244" fill="url(#desk)"/>
  <defs>
    <linearGradient id="bg" x1="128" y1="70" x2="1486" y2="1124" gradientUnits="userSpaceOnUse">
      <stop stop-color="#F2E9DD"/>
      <stop offset="0.48" stop-color="#DDCFBF"/>
      <stop offset="1" stop-color="#B8A38E"/>
    </linearGradient>
    <linearGradient id="desk" x1="800" y1="956" x2="800" y2="1200" gradientUnits="userSpaceOnUse">
      <stop stop-color="#8E653D"/>
      <stop offset="1" stop-color="#5D4027"/>
    </linearGradient>
  </defs>
</svg>
