<svg width="1600" height="1200" viewBox="0 0 1600 1200" fill="none" xmlns="http://www.w3.org/2000/svg">
  <rect width="1600" height="1200" fill="url(#bg)"/>
  <ellipse cx="1270" cy="162" rx="302" ry="188" fill="#EEDCC6" fill-opacity="0.78"/>
  <rect x="140" y="214" width="858" height="494" rx="30" fill="#1B2432"/>
  <rect x="184" y="256" width="770" height="410" rx="22" fill="#2B3950"/>
  <rect x="246" y="320" width="288" height="18" rx="9" fill="#F4EBDC" fill-opacity="0.88"/>
  <rect x="246" y="364" width="406" height="14" rx="7" fill="#D7DEE8" fill-opacity="0.6"/>
  <rect x="246" y="420" width="240" height="186" rx="20" fill="#374761"/>
  <rect x="512" y="420" width="176" height="186" rx="20" fill="#F1E3D2" fill-opacity="0.12"/>
  <rect x="714" y="420" width="176" height="186" rx="20" fill="#F1E3D2" fill-opacity="0.08"/>
  <rect x="1050" y="266" width="356" height="598" rx="32" fill="#FAF5ED" fill-opacity="0.84"/>
  <rect x="1094" y="320" width="268" height="18" rx="9" fill="#223041"/>
  <rect x="1094" y="360" width="210" height="12" rx="6" fill="#5D6978" fill-opacity="0.66"/>
  <rect x="1094" y="394" width="236" height="12" rx="6" fill="#5D6978" fill-opacity="0.44"/>
  <rect x="1094" y="470" width="268" height="286" rx="22" fill="#EFE2D1"/>
  <rect x="0" y="940" width="1600" height="260" fill="url(#desk)"/>
  <defs>
    <linearGradient id="bg" x1="92" y1="90" x2="1474" y2="1108" gradientUnits="userSpaceOnUse">
      <stop stop-color="#F3ECDD"/>
      <stop offset="0.48" stop-color="#E6DBCD"/>
      <stop offset="1" stop-color="#D8C7B2"/>
    </linearGradient>
    <linearGradient id="desk" x1="800" y1="940" x2="800" y2="1200" gradientUnits="userSpaceOnUse">
      <stop stop-color="#8A6848"/>
      <stop offset="1" stop-color="#6A4E36"/>
    </linearGradient>
  </defs>
</svg>
