<svg width="1600" height="1000" viewBox="0 0 1600 1000" fill="none" xmlns="http://www.w3.org/2000/svg">
  <rect width="1600" height="1000" fill="url(#bg)"/>
  <rect x="96" y="124" width="694" height="468" rx="30" fill="#1B2432"/>
  <rect x="140" y="164" width="606" height="388" rx="22" fill="#2B3950"/>
  <rect x="196" y="222" width="266" height="18" rx="9" fill="#F1E8DA" fill-opacity="0.88"/>
  <rect x="196" y="264" width="372" height="12" rx="6" fill="#D8DFE8" fill-opacity="0.6"/>
  <rect x="196" y="330" width="232" height="168" rx="18" fill="#37475F"/>
  <rect x="450" y="330" width="250" height="72" rx="16" fill="#F2E1CD" fill-opacity="0.14"/>
  <rect x="450" y="426" width="250" height="72" rx="16" fill="#F2E1CD" fill-opacity="0.08"/>
  <rect x="852" y="112" width="652" height="622" rx="34" fill="#FBF7F0" fill-opacity="0.85"/>
  <rect x="916" y="190" width="376" height="18" rx="9" fill="#223041"/>
  <rect x="916" y="232" width="286" height="12" rx="6" fill="#5A6777" fill-opacity="0.68"/>
  <rect x="916" y="266" width="322" height="12" rx="6" fill="#5A6777" fill-opacity="0.48"/>
  <rect x="916" y="340" width="524" height="314" rx="24" fill="#EEE1D1"/>
  <rect x="0" y="786" width="1600" height="214" fill="url(#desk)"/>
  <defs>
    <linearGradient id="bg" x1="72" y1="54" x2="1440" y2="932" gradientUnits="userSpaceOnUse">
      <stop stop-color="#F4EEE2"/>
      <stop offset="0.5" stop-color="#E3D8CB"/>
      <stop offset="1" stop-color="#D2BFA9"/>
    </linearGradient>
    <linearGradient id="desk" x1="800" y1="786" x2="800" y2="1000" gradientUnits="userSpaceOnUse">
      <stop stop-color="#866442"/>
      <stop offset="1" stop-color="#654A31"/>
    </linearGradient>
  </defs>
</svg>
