<svg width="1600" height="1200" viewBox="0 0 1600 1200" fill="none" xmlns="http://www.w3.org/2000/svg">
  <rect width="1600" height="1200" fill="url(#bg)"/>
  <ellipse cx="1302" cy="176" rx="286" ry="186" fill="#E4C391" fill-opacity="0.16"/>
  <rect x="132" y="180" width="744" height="560" rx="34" fill="#101822"/>
  <rect x="176" y="222" width="656" height="474" rx="26" fill="#182739"/>
  <rect x="232" y="282" width="296" height="18" rx="9" fill="#F0DFCA" fill-opacity="0.88"/>
  <rect x="232" y="324" width="224" height="12" rx="6" fill="#9EB2CA" fill-opacity="0.64"/>
  <rect x="232" y="390" width="544" height="244" rx="22" fill="#22374F"/>
  <path d="M272 594C346 522 409.333 483.667 462 479C514.667 474.333 570.667 500.333 630 557" stroke="#E4C391" stroke-width="6" stroke-linecap="round"/>
  <circle cx="272" cy="594" r="10" fill="#E4C391"/>
  <circle cx="462" cy="480" r="10" fill="#E4C391"/>
  <circle cx="630" cy="557" r="10" fill="#E4C391"/>
  <rect x="934" y="162" width="530" height="676" rx="36" fill="#FBF8F2" fill-opacity="0.92"/>
  <rect x="988" y="220" width="322" height="18" rx="9" fill="#172335"/>
  <rect x="988" y="262" width="252" height="12" rx="6" fill="#66768D" fill-opacity="0.66"/>
  <rect x="988" y="296" width="286" height="12" rx="6" fill="#66768D" fill-opacity="0.42"/>
  <rect x="988" y="380" width="430" height="184" rx="24" fill="#EEE0CC"/>
  <rect x="1020" y="420" width="366" height="12" rx="6" fill="#1C2C40" fill-opacity="0.74"/>
  <rect x="1020" y="454" width="240" height="10" rx="5" fill="#68788F" fill-opacity="0.52"/>
  <rect x="988" y="596" width="430" height="170" rx="24" fill="#F6EFE2"/>
  <rect x="0" y="944" width="1600" height="256" fill="url(#desk)"/>
  <rect x="356" y="874" width="344" height="170" rx="22" fill="#FBF7F0"/>
  <rect x="404" y="918" width="182" height="14" rx="7" fill="#152334"/>
  <rect x="404" y="954" width="246" height="12" rx="6" fill="#69788F" fill-opacity="0.56"/>
  <rect x="770" y="862" width="160" height="206" rx="28" fill="#121B28"/>
  <rect x="806" y="914" width="88" height="10" rx="5" fill="#E4C391" fill-opacity="0.86"/>
  <rect x="806" y="944" width="58" height="8" rx="4" fill="#A8BDD4" fill-opacity="0.58"/>
  <defs>
    <linearGradient id="bg" x1="118" y1="84" x2="1490" y2="1128" gradientUnits="userSpaceOnUse">
      <stop stop-color="#F0E8DC"/>
      <stop offset="0.5" stop-color="#DDCFBF"/>
      <stop offset="1" stop-color="#B59F8A"/>
    </linearGradient>
    <linearGradient id="desk" x1="800" y1="944" x2="800" y2="1200" gradientUnits="userSpaceOnUse">
      <stop stop-color="#8C643B"/>
      <stop offset="1" stop-color="#5D4027"/>
    </linearGradient>
  </defs>
</svg>
