<svg width="1600" height="1200" viewBox="0 0 1600 1200" fill="none" xmlns="http://www.w3.org/2000/svg">
  <rect width="1600" height="1200" fill="url(#bg)"/>
  <ellipse cx="1248" cy="154" rx="320" ry="188" fill="#E4C391" fill-opacity="0.18"/>
  <rect x="94" y="126" width="1408" height="728" rx="42" fill="#101822"/>
  <rect x="142" y="176" width="1312" height="630" rx="32" fill="#172638"/>
  <rect x="202" y="232" width="334" height="18" rx="9" fill="#F0DFCA" fill-opacity="0.9"/>
  <rect x="202" y="274" width="256" height="12" rx="6" fill="#9DB2CA" fill-opacity="0.68"/>
  <rect x="202" y="348" width="392" height="364" rx="26" fill="#1E3148"/>
  <rect x="636" y="348" width="392" height="364" rx="26" fill="#20354D"/>
  <rect x="1070" y="348" width="320" height="364" rx="26" fill="#F8F4EC" fill-opacity="0.94"/>
  <rect x="242" y="396" width="308" height="16" rx="8" fill="#E4C391" fill-opacity="0.76"/>
  <rect x="676" y="396" width="308" height="16" rx="8" fill="#E4C391" fill-opacity="0.76"/>
  <rect x="1108" y="396" width="240" height="16" rx="8" fill="#19273A" fill-opacity="0.78"/>
  <rect x="242" y="438" width="240" height="12" rx="6" fill="#A7BCD4" fill-opacity="0.48"/>
  <rect x="676" y="438" width="220" height="12" rx="6" fill="#A7BCD4" fill-opacity="0.48"/>
  <rect x="1108" y="438" width="184" height="12" rx="6" fill="#6A7890" fill-opacity="0.52"/>
  <rect x="0" y="954" width="1600" height="246" fill="url(#desk)"/>
  <defs>
    <linearGradient id="bg" x1="104" y1="82" x2="1488" y2="1126" gradientUnits="userSpaceOnUse">
      <stop stop-color="#F1E8DC"/>
      <stop offset="0.5" stop-color="#DCCDBC"/>
      <stop offset="1" stop-color="#B59F8A"/>
    </linearGradient>
    <linearGradient id="desk" x1="800" y1="954" x2="800" y2="1200" gradientUnits="userSpaceOnUse">
      <stop stop-color="#8C633B"/>
      <stop offset="1" stop-color="#5D4027"/>
    </linearGradient>
  </defs>
</svg>
