<svg width="1600" height="1200" viewBox="0 0 1600 1200" fill="none" xmlns="http://www.w3.org/2000/svg">
  <rect width="1600" height="1200" fill="url(#bg)"/>
  <rect x="120" y="150" width="1360" height="712" rx="42" fill="#111924"/>
  <rect x="168" y="198" width="1264" height="616" rx="32" fill="#172638"/>
  <rect x="232" y="256" width="286" height="18" rx="9" fill="#F0DFCA" fill-opacity="0.88"/>
  <rect x="232" y="298" width="224" height="12" rx="6" fill="#9DB2CA" fill-opacity="0.68"/>
  <rect x="232" y="378" width="306" height="344" rx="26" fill="#21364F"/>
  <rect x="572" y="378" width="306" height="344" rx="26" fill="#20354D"/>
  <rect x="912" y="378" width="470" height="344" rx="26" fill="#FBF8F2" fill-opacity="0.94"/>
  <rect x="274" y="426" width="222" height="14" rx="7" fill="#E4C391" fill-opacity="0.76"/>
  <rect x="614" y="426" width="222" height="14" rx="7" fill="#E4C391" fill-opacity="0.76"/>
  <rect x="952" y="426" width="312" height="14" rx="7" fill="#1B2B40" fill-opacity="0.78"/>
  <rect x="274" y="464" width="170" height="10" rx="5" fill="#A7BCD4" fill-opacity="0.48"/>
  <rect x="614" y="464" width="170" height="10" rx="5" fill="#A7BCD4" fill-opacity="0.48"/>
  <rect x="952" y="464" width="188" height="10" rx="5" fill="#6C7A91" fill-opacity="0.52"/>
  <rect x="0" y="956" width="1600" height="244" fill="url(#desk)"/>
  <defs>
    <linearGradient id="bg" x1="120" y1="88" x2="1482" y2="1122" gradientUnits="userSpaceOnUse">
      <stop stop-color="#F1E8DC"/>
      <stop offset="0.5" stop-color="#DCCDBC"/>
      <stop offset="1" stop-color="#B59F8A"/>
    </linearGradient>
    <linearGradient id="desk" x1="800" y1="956" x2="800" y2="1200" gradientUnits="userSpaceOnUse">
      <stop stop-color="#8E653D"/>
      <stop offset="1" stop-color="#5D4027"/>
    </linearGradient>
  </defs>
</svg>
