<svg width="1600" height="1200" viewBox="0 0 1600 1200" fill="none" xmlns="http://www.w3.org/2000/svg">
  <rect width="1600" height="1200" fill="url(#bg)"/>
  <ellipse cx="1258" cy="152" rx="290" ry="184" fill="#E4C391" fill-opacity="0.18"/>
  <rect x="132" y="166" width="864" height="642" rx="38" fill="#101822"/>
  <rect x="180" y="214" width="768" height="546" rx="28" fill="#172638"/>
  <rect x="236" y="270" width="298" height="18" rx="9" fill="#F0DFCA" fill-opacity="0.88"/>
  <rect x="236" y="312" width="232" height="12" rx="6" fill="#9EB2CA" fill-opacity="0.68"/>
  <rect x="236" y="386" width="656" height="308" rx="24" fill="#1F3249"/>
  <rect x="1038" y="150" width="430" height="712" rx="38" fill="#FBF8F2" fill-opacity="0.92"/>
  <rect x="1090" y="208" width="320" height="18" rx="9" fill="#172335"/>
  <rect x="1090" y="248" width="238" height="12" rx="6" fill="#68788F" fill-opacity="0.66"/>
  <rect x="1090" y="284" width="282" height="12" rx="6" fill="#68788F" fill-opacity="0.42"/>
  <rect x="1090" y="364" width="326" height="128" rx="20" fill="#EEE0CC"/>
  <rect x="1090" y="516" width="326" height="128" rx="20" fill="#F5EEDF"/>
  <rect x="1090" y="668" width="326" height="128" rx="20" fill="#EEE0CC"/>
  <rect x="0" y="950" width="1600" height="250" fill="url(#desk)"/>
  <defs>
    <linearGradient id="bg" x1="116" y1="82" x2="1488" y2="1128" gradientUnits="userSpaceOnUse">
      <stop stop-color="#EFE5D9"/>
      <stop offset="0.5" stop-color="#D9CAB8"/>
      <stop offset="1" stop-color="#B19C87"/>
    </linearGradient>
    <linearGradient id="desk" x1="800" y1="950" x2="800" y2="1200" gradientUnits="userSpaceOnUse">
      <stop stop-color="#8D643C"/>
      <stop offset="1" stop-color="#5D4027"/>
    </linearGradient>
  </defs>
</svg>
