<svg width="1600" height="980" viewBox="0 0 1600 980" fill="none" xmlns="http://www.w3.org/2000/svg">
  <rect width="1600" height="980" fill="url(#bg)"/>
  <ellipse cx="1236" cy="144" rx="280" ry="178" fill="#F1E3D0" fill-opacity="0.76"/>
  <rect x="132" y="170" width="636" height="598" rx="34" fill="#FBF7F0" fill-opacity="0.86"/>
  <rect x="192" y="246" width="302" height="20" rx="10" fill="#223041"/>
  <rect x="192" y="292" width="224" height="12" rx="6" fill="#5B6878" fill-opacity="0.66"/>
  <rect x="192" y="366" width="514" height="114" rx="22" fill="#EEE2D3"/>
  <rect x="192" y="504" width="514" height="114" rx="22" fill="#EEE2D3"/>
  <rect x="192" y="642" width="514" height="82" rx="22" fill="#EEE2D3"/>
  <rect x="846" y="188" width="632" height="430" rx="34" fill="#1C2634"/>
  <rect x="892" y="230" width="540" height="342" rx="24" fill="#2A374B"/>
  <rect x="952" y="286" width="244" height="16" rx="8" fill="#F3E9DB" fill-opacity="0.88"/>
  <rect x="952" y="326" width="328" height="12" rx="6" fill="#D8DFE8" fill-opacity="0.58"/>
  <rect x="952" y="390" width="206" height="128" rx="18" fill="#F0E2D1" fill-opacity="0.14"/>
  <rect x="1184" y="390" width="206" height="128" rx="18" fill="#F0E2D1" fill-opacity="0.1"/>
  <rect x="0" y="790" width="1600" height="190" fill="url(#desk)"/>
  <defs>
    <linearGradient id="bg" x1="84" y1="54" x2="1470" y2="908" gradientUnits="userSpaceOnUse">
      <stop stop-color="#F4EDE1"/>
      <stop offset="0.52" stop-color="#E3D8CB"/>
      <stop offset="1" stop-color="#D0BDA7"/>
    </linearGradient>
    <linearGradient id="desk" x1="800" y1="790" x2="800" y2="980" gradientUnits="userSpaceOnUse">
      <stop stop-color="#876343"/>
      <stop offset="1" stop-color="#654930"/>
    </linearGradient>
  </defs>
</svg>
