<svg width="1600" height="1200" viewBox="0 0 1600 1200" fill="none" xmlns="http://www.w3.org/2000/svg">
  <rect width="1600" height="1200" fill="url(#bg)"/>
  <ellipse cx="1248" cy="154" rx="304" ry="194" fill="#F2E3D0" fill-opacity="0.76"/>
  <rect x="124" y="176" width="546" height="776" rx="32" fill="#FBF6EE" fill-opacity="0.84"/>
  <rect x="180" y="250" width="270" height="18" rx="9" fill="#223041"/>
  <rect x="180" y="294" width="210" height="12" rx="6" fill="#5B6878" fill-opacity="0.66"/>
  <rect x="180" y="350" width="434" height="124" rx="22" fill="#ECE0D0"/>
  <rect x="222" y="392" width="140" height="12" rx="6" fill="#2A384C"/>
  <rect x="222" y="426" width="232" height="10" rx="5" fill="#687487" fill-opacity="0.42"/>
  <rect x="180" y="514" width="434" height="124" rx="22" fill="#ECE0D0"/>
  <rect x="180" y="678" width="434" height="124" rx="22" fill="#ECE0D0"/>
  <rect x="744" y="180" width="724" height="540" rx="34" fill="#1D2634"/>
  <rect x="792" y="226" width="628" height="446" rx="24" fill="#2A374C"/>
  <path d="M860 548C930 480 980 510 1044 442C1118 364 1180 392 1264 320" stroke="#F3E7D9" stroke-width="10" stroke-linecap="round"/>
  <circle cx="860" cy="548" r="18" fill="#F3E7D9"/>
  <circle cx="1044" cy="442" r="18" fill="#D8DEEA"/>
  <circle cx="1264" cy="320" r="18" fill="#F3E7D9"/>
  <rect x="0" y="940" width="1600" height="260" fill="url(#desk)"/>
  <defs>
    <linearGradient id="bg" x1="114" y1="76" x2="1462" y2="1116" gradientUnits="userSpaceOnUse">
      <stop stop-color="#F3ECE1"/>
      <stop offset="0.5" stop-color="#E5DBCE"/>
      <stop offset="1" stop-color="#D3C1AD"/>
    </linearGradient>
    <linearGradient id="desk" x1="800" y1="940" x2="800" y2="1200" gradientUnits="userSpaceOnUse">
      <stop stop-color="#896547"/>
      <stop offset="1" stop-color="#684C33"/>
    </linearGradient>
  </defs>
</svg>
