<svg width="1600" height="1200" viewBox="0 0 1600 1200" fill="none" xmlns="http://www.w3.org/2000/svg">
  <rect width="1600" height="1200" fill="url(#bg)"/>
  <ellipse cx="1248" cy="142" rx="318" ry="188" fill="#E4C391" fill-opacity="0.18"/>
  <rect x="112" y="132" width="1378" height="722" rx="42" fill="#101822"/>
  <rect x="160" y="180" width="1282" height="626" rx="32" fill="#172638"/>
  <rect x="220" y="236" width="320" height="20" rx="10" fill="#F0DFCA" fill-opacity="0.9"/>
  <rect x="220" y="280" width="248" height="12" rx="6" fill="#9EB2CA" fill-opacity="0.68"/>
  <rect x="220" y="338" width="1186" height="392" rx="28" fill="#1E3148"/>
  <rect x="266" y="394" width="236" height="236" rx="24" fill="#223850"/>
  <rect x="536" y="394" width="236" height="236" rx="24" fill="#E4C391" fill-opacity="0.14"/>
  <rect x="806" y="394" width="236" height="236" rx="24" fill="#223850"/>
  <rect x="1076" y="394" width="286" height="236" rx="24" fill="#F3ECDF" fill-opacity="0.94"/>
  <path d="M384 512H654" stroke="#A7BCD4" stroke-opacity="0.5" stroke-width="6" stroke-linecap="round"/>
  <path d="M654 512H924" stroke="#A7BCD4" stroke-opacity="0.5" stroke-width="6" stroke-linecap="round"/>
  <path d="M924 512H1188" stroke="#A7BCD4" stroke-opacity="0.5" stroke-width="6" stroke-linecap="round"/>
  <circle cx="384" cy="512" r="14" fill="#E4C391"/>
  <circle cx="654" cy="512" r="14" fill="#E4C391"/>
  <circle cx="924" cy="512" r="14" fill="#E4C391"/>
  <circle cx="1188" cy="512" r="14" fill="#E4C391"/>
  <rect x="0" y="952" width="1600" height="248" fill="url(#desk)"/>
  <defs>
    <linearGradient id="bg" x1="112" y1="70" x2="1490" y2="1128" gradientUnits="userSpaceOnUse">
      <stop stop-color="#F2E9DD"/>
      <stop offset="0.52" stop-color="#DDCFBF"/>
      <stop offset="1" stop-color="#B39F8B"/>
    </linearGradient>
    <linearGradient id="desk" x1="800" y1="952" x2="800" y2="1200" gradientUnits="userSpaceOnUse">
      <stop stop-color="#8E663D"/>
      <stop offset="1" stop-color="#5E4128"/>
    </linearGradient>
  </defs>
</svg>
