<svg width="1600" height="1200" viewBox="0 0 1600 1200" fill="none" xmlns="http://www.w3.org/2000/svg">
  <rect width="1600" height="1200" fill="url(#bg)"/>
  <rect x="108" y="152" width="1384" height="706" rx="42" fill="#101822"/>
  <rect x="156" y="200" width="1288" height="610" rx="32" fill="#162537"/>
  <rect x="218" y="258" width="318" height="18" rx="9" fill="#F0DFCA" fill-opacity="0.88"/>
  <rect x="218" y="300" width="248" height="12" rx="6" fill="#9EB2CA" fill-opacity="0.68"/>
  <rect x="218" y="376" width="1162" height="292" rx="26" fill="#1E3148"/>
  <rect x="256" y="422" width="236" height="198" rx="22" fill="#223850"/>
  <rect x="528" y="422" width="236" height="198" rx="22" fill="#E4C391" fill-opacity="0.16"/>
  <rect x="800" y="422" width="236" height="198" rx="22" fill="#223850"/>
  <rect x="1072" y="422" width="270" height="198" rx="22" fill="#F3ECDF" fill-opacity="0.94"/>
  <path d="M382 522H646" stroke="#A7BCD4" stroke-opacity="0.5" stroke-width="6" stroke-linecap="round"/>
  <path d="M654 522H918" stroke="#A7BCD4" stroke-opacity="0.5" stroke-width="6" stroke-linecap="round"/>
  <path d="M926 522H1202" stroke="#A7BCD4" stroke-opacity="0.5" stroke-width="6" stroke-linecap="round"/>
  <circle cx="382" cy="522" r="12" fill="#E4C391"/>
  <circle cx="654" cy="522" r="12" fill="#E4C391"/>
  <circle cx="926" cy="522" r="12" fill="#E4C391"/>
  <circle cx="1202" cy="522" r="12" fill="#E4C391"/>
  <rect x="218" y="702" width="1162" height="54" rx="18" fill="#132031"/>
  <rect x="256" y="722" width="182" height="12" rx="6" fill="#E4C391" fill-opacity="0.82"/>
  <rect x="468" y="722" width="244" height="12" rx="6" fill="#A8BDD4" fill-opacity="0.46"/>
  <rect x="740" y="722" width="198" height="12" rx="6" fill="#A8BDD4" fill-opacity="0.46"/>
  <rect x="970" y="722" width="182" height="12" rx="6" fill="#A8BDD4" fill-opacity="0.46"/>
  <defs>
    <linearGradient id="bg" x1="108" y1="92" x2="1492" y2="1118" gradientUnits="userSpaceOnUse">
      <stop stop-color="#EEE4D8"/>
      <stop offset="0.48" stop-color="#D8C9B7"/>
      <stop offset="1" stop-color="#B19D88"/>
    </linearGradient>
  </defs>
</svg>
