<svg width="1600" height="1200" viewBox="0 0 1600 1200" fill="none" xmlns="http://www.w3.org/2000/svg">
  <rect width="1600" height="1200" fill="url(#bg)"/>
  <ellipse cx="1260" cy="144" rx="302" ry="182" fill="#F0E0CD" fill-opacity="0.76"/>
  <rect x="118" y="192" width="748" height="530" rx="30" fill="#1C2634"/>
  <rect x="162" y="234" width="660" height="444" rx="24" fill="#29374C"/>
  <rect x="224" y="298" width="288" height="18" rx="9" fill="#F0E8DB" fill-opacity="0.9"/>
  <rect x="224" y="342" width="406" height="12" rx="6" fill="#D6DEE9" fill-opacity="0.58"/>
  <rect x="224" y="410" width="556" height="196" rx="22" fill="#36455E"/>
  <rect x="938" y="218" width="540" height="650" rx="34" fill="#FBF7F0" fill-opacity="0.84"/>
  <rect x="994" y="284" width="322" height="20" rx="10" fill="#223041"/>
  <rect x="994" y="330" width="246" height="12" rx="6" fill="#5B6878" fill-opacity="0.68"/>
  <rect x="994" y="364" width="280" height="12" rx="6" fill="#5B6878" fill-opacity="0.44"/>
  <rect x="994" y="450" width="428" height="280" rx="24" fill="#EEE2D1"/>
  <rect x="0" y="938" width="1600" height="262" fill="url(#desk)"/>
  <defs>
    <linearGradient id="bg" x1="92" y1="76" x2="1470" y2="1120" gradientUnits="userSpaceOnUse">
      <stop stop-color="#F4EDE2"/>
      <stop offset="0.52" stop-color="#E4D9CC"/>
      <stop offset="1" stop-color="#D4C1AC"/>
    </linearGradient>
    <linearGradient id="desk" x1="800" y1="938" x2="800" y2="1200" gradientUnits="userSpaceOnUse">
      <stop stop-color="#896747"/>
      <stop offset="1" stop-color="#684C34"/>
    </linearGradient>
  </defs>
</svg>
