<svg width="1600" height="900" viewBox="0 0 1600 900" fill="none" xmlns="http://www.w3.org/2000/svg">
  <rect width="1600" height="900" fill="url(#bg)"/>
  <rect x="160" y="132" width="1280" height="500" rx="34" fill="#FBF7EF" fill-opacity="0.86"/>
  <rect x="228" y="208" width="352" height="18" rx="9" fill="#223041"/>
  <rect x="228" y="250" width="270" height="12" rx="6" fill="#596675" fill-opacity="0.62"/>
  <rect x="228" y="324" width="420" height="220" rx="24" fill="#ECE1D1"/>
  <rect x="726" y="190" width="632" height="364" rx="28" fill="#1D2634"/>
  <rect x="770" y="230" width="544" height="282" rx="22" fill="#2A374C"/>
  <rect x="836" y="286" width="250" height="16" rx="8" fill="#F1E8DA" fill-opacity="0.88"/>
  <rect x="836" y="326" width="332" height="12" rx="6" fill="#D7DEE9" fill-opacity="0.6"/>
  <rect x="836" y="386" width="206" height="126" rx="18" fill="#F1E3D2" fill-opacity="0.14"/>
  <rect x="1070" y="386" width="206" height="126" rx="18" fill="#F1E3D2" fill-opacity="0.1"/>
  <rect x="0" y="710" width="1600" height="190" fill="url(#desk)"/>
  <defs>
    <linearGradient id="bg" x1="84" y1="48" x2="1472" y2="840" gradientUnits="userSpaceOnUse">
      <stop stop-color="#F3ECE0"/>
      <stop offset="0.5" stop-color="#E2D7CA"/>
      <stop offset="1" stop-color="#D0BDA7"/>
    </linearGradient>
    <linearGradient id="desk" x1="800" y1="710" x2="800" y2="900" gradientUnits="userSpaceOnUse">
      <stop stop-color="#876242"/>
      <stop offset="1" stop-color="#654930"/>
    </linearGradient>
  </defs>
</svg>
