<svg width="1600" height="1200" viewBox="0 0 1600 1200" fill="none" xmlns="http://www.w3.org/2000/svg">
  <rect width="1600" height="1200" fill="url(#bg)"/>
  <rect x="146" y="170" width="1308" height="690" rx="42" fill="#101822"/>
  <rect x="194" y="218" width="1212" height="594" rx="32" fill="#172638"/>
  <rect x="258" y="276" width="308" height="18" rx="9" fill="#F0DFCA" fill-opacity="0.88"/>
  <rect x="258" y="318" width="236" height="12" rx="6" fill="#9EB2CA" fill-opacity="0.68"/>
  <rect x="258" y="398" width="438" height="300" rx="24" fill="#223850"/>
  <rect x="730" y="398" width="258" height="300" rx="24" fill="#E4C391" fill-opacity="0.16"/>
  <rect x="1022" y="398" width="318" height="300" rx="24" fill="#F9F5ED" fill-opacity="0.94"/>
  <rect x="1060" y="444" width="244" height="14" rx="7" fill="#1A293D" fill-opacity="0.78"/>
  <rect x="1060" y="480" width="176" height="10" rx="5" fill="#69788F" fill-opacity="0.54"/>
  <rect x="0" y="952" width="1600" height="248" fill="url(#desk)"/>
  <defs>
    <linearGradient id="bg" x1="138" y1="82" x2="1488" y2="1126" gradientUnits="userSpaceOnUse">
      <stop stop-color="#F1E8DC"/>
      <stop offset="0.48" stop-color="#DCCDBC"/>
      <stop offset="1" stop-color="#B49E89"/>
    </linearGradient>
    <linearGradient id="desk" x1="800" y1="952" x2="800" y2="1200" gradientUnits="userSpaceOnUse">
      <stop stop-color="#8D643C"/>
      <stop offset="1" stop-color="#5D4027"/>
    </linearGradient>
  </defs>
</svg>
