<svg width="1600" height="1200" viewBox="0 0 1600 1200" fill="none" xmlns="http://www.w3.org/2000/svg">
  <rect width="1600" height="1200" fill="url(#bg)"/>
  <ellipse cx="1312" cy="184" rx="292" ry="188" fill="#E4C391" fill-opacity="0.18"/>
  <rect x="104" y="152" width="1392" height="742" rx="40" fill="#101822"/>
  <rect x="152" y="198" width="622" height="648" rx="30" fill="#172538"/>
  <rect x="206" y="258" width="298" height="18" rx="9" fill="#F0DFCA" fill-opacity="0.88"/>
  <rect x="206" y="300" width="242" height="12" rx="6" fill="#9BB0C8" fill-opacity="0.68"/>
  <rect x="206" y="338" width="304" height="12" rx="6" fill="#9BB0C8" fill-opacity="0.36"/>
  <rect x="206" y="408" width="514" height="382" rx="24" fill="#21364F"/>
  <rect x="266" y="470" width="182" height="146" rx="18" fill="#E4C391" fill-opacity="0.16"/>
  <rect x="472" y="470" width="188" height="146" rx="18" fill="#20354D"/>
  <rect x="820" y="198" width="628" height="648" rx="30" fill="#FAF7F1" fill-opacity="0.9"/>
  <rect x="874" y="258" width="298" height="18" rx="9" fill="#182434"/>
  <rect x="874" y="298" width="226" height="12" rx="6" fill="#66758B" fill-opacity="0.66"/>
  <rect x="874" y="332" width="260" height="12" rx="6" fill="#66758B" fill-opacity="0.38"/>
  <rect x="874" y="406" width="248" height="320" rx="22" fill="#EEE2D2"/>
  <rect x="1146" y="406" width="248" height="320" rx="22" fill="#F4EEE4"/>
  <rect x="908" y="444" width="180" height="12" rx="6" fill="#1E2F43" fill-opacity="0.74"/>
  <rect x="1180" y="444" width="180" height="12" rx="6" fill="#1E2F43" fill-opacity="0.74"/>
  <rect x="908" y="478" width="148" height="10" rx="5" fill="#6A7890" fill-opacity="0.54"/>
  <rect x="1180" y="478" width="148" height="10" rx="5" fill="#6A7890" fill-opacity="0.54"/>
  <rect x="0" y="940" width="1600" height="260" fill="url(#desk)"/>
  <rect x="398" y="900" width="408" height="178" rx="24" fill="#FBF7F0"/>
  <rect x="454" y="946" width="212" height="14" rx="7" fill="#162334"/>
  <rect x="454" y="982" width="284" height="12" rx="6" fill="#6A7990" fill-opacity="0.56"/>
  <rect x="854" y="882" width="244" height="196" rx="24" fill="#111A25"/>
  <rect x="898" y="922" width="154" height="12" rx="6" fill="#E4C391" fill-opacity="0.86"/>
  <rect x="898" y="956" width="118" height="10" rx="5" fill="#A6BCD4" fill-opacity="0.58"/>
  <defs>
    <linearGradient id="bg" x1="140" y1="62" x2="1468" y2="1118" gradientUnits="userSpaceOnUse">
      <stop stop-color="#F1E8DC"/>
      <stop offset="0.48" stop-color="#DDCFBF"/>
      <stop offset="1" stop-color="#B39F8D"/>
    </linearGradient>
    <linearGradient id="desk" x1="800" y1="940" x2="800" y2="1200" gradientUnits="userSpaceOnUse">
      <stop stop-color="#89613B"/>
      <stop offset="1" stop-color="#5E4027"/>
    </linearGradient>
  </defs>
</svg>
