<svg width="1600" height="1080" viewBox="0 0 1600 1080" fill="none" xmlns="http://www.w3.org/2000/svg">
  <rect width="1600" height="1080" fill="url(#bg)"/>
  <ellipse cx="1228" cy="156" rx="298" ry="184" fill="#F2E5D5" fill-opacity="0.76"/>
  <ellipse cx="278" cy="1002" rx="404" ry="236" fill="#90A3BA" fill-opacity="0.24"/>
  <rect x="112" y="178" width="648" height="468" rx="28" fill="#1C2634"/>
  <rect x="154" y="218" width="564" height="392" rx="18" fill="#27354A"/>
  <rect x="210" y="272" width="262" height="16" rx="8" fill="#F0E6D8" fill-opacity="0.88"/>
  <rect x="210" y="312" width="352" height="12" rx="6" fill="#D4DCE8" fill-opacity="0.62"/>
  <rect x="210" y="380" width="212" height="182" rx="18" fill="#34435E"/>
  <rect x="444" y="380" width="224" height="84" rx="18" fill="#F3E3D0" fill-opacity="0.14"/>
  <rect x="444" y="478" width="224" height="84" rx="18" fill="#F3E3D0" fill-opacity="0.1"/>
  <rect x="834" y="184" width="520" height="686" rx="30" fill="#FBF7F0" fill-opacity="0.82"/>
  <rect x="890" y="252" width="414" height="22" rx="11" fill="#223041"/>
  <rect x="890" y="300" width="308" height="13" rx="6.5" fill="#566475" fill-opacity="0.68"/>
  <rect x="890" y="336" width="342" height="13" rx="6.5" fill="#566475" fill-opacity="0.48"/>
  <rect x="890" y="418" width="414" height="358" rx="24" fill="#ECE1D0"/>
  <rect x="0" y="842" width="1600" height="238" fill="url(#desk)"/>
  <rect x="218" y="756" width="294" height="144" rx="20" fill="#F8F1E7"/>
  <rect x="262" y="792" width="162" height="12" rx="6" fill="#2A384B"/>
  <rect x="262" y="824" width="208" height="12" rx="6" fill="#6B7788" fill-opacity="0.44"/>
  <defs>
    <linearGradient id="bg" x1="142" y1="66" x2="1460" y2="1030" gradientUnits="userSpaceOnUse">
      <stop stop-color="#F4EDE2"/>
      <stop offset="0.54" stop-color="#E4D9CB"/>
      <stop offset="1" stop-color="#D1C0AB"/>
    </linearGradient>
    <linearGradient id="desk" x1="800" y1="842" x2="800" y2="1080" gradientUnits="userSpaceOnUse">
      <stop stop-color="#8F6A49"/>
      <stop offset="1" stop-color="#6D5036"/>
    </linearGradient>
  </defs>
</svg>
